<?xml version="1.0" encoding="UTF-8"?>
<!DOCTYPE svg PUBLIC "-//W3C//DTD SVG 1.1//EN" "http://www.w3.org/Graphics/SVG/1.1/DTD/svg11.dtd">
<!-- Creator: CorelDRAW -->
<svg xmlns="http://www.w3.org/2000/svg" xml:space="preserve" width="1.17106in" height="3.49587in" version="1.1" style="shape-rendering:geometricPrecision; text-rendering:geometricPrecision; image-rendering:optimizeQuality; fill-rule:evenodd; clip-rule:evenodd"
viewBox="0 0 279.49 834.33"
 xmlns:xlink="http://www.w3.org/1999/xlink"
 xmlns:xodm="http://www.corel.com/coreldraw/odm/2003">
 <defs>
  <style type="text/css">
   <![CDATA[
    .fil0 {fill:#FEFEFE}
   ]]>
  </style>
 </defs>
 <g id="Layer_x0020_1">
  <metadata id="CorelCorpID_0Corel-Layer"/>
  <path class="fil0" d="M180.8 646.16l0 147.12c0,22.58 -18.47,41.05 -41.06,41.05 -22.58,0 -41.05,-18.47 -41.05,-41.05l0 -146.56c0,-13.49 9.38,-22.27 21.8,-26.53l0 -267.94c0,-19.72 -10.53,-39.19 -29.11,-45.07l-45.23 -14.32c-39.88,-12.62 -46.15,-22.44 -46.15,-64.44l0 -167.14c0,-40.36 15.53,-48.07 53.73,-54.63 51.56,-8.87 120.63,-8.84 172.03,0 38.2,6.56 53.73,14.27 53.73,54.63l0 167.14c0,42.01 -6.27,51.82 -46.15,64.44l-45.23 14.32c-18.58,5.88 -29.11,25.35 -29.11,45.07l0 268.06c12.42,4.29 21.81,12.96 21.81,25.86zm-41.06 125.31c8.89,0 16.09,7.2 16.09,16.09 0,8.88 -7.2,16.08 -16.09,16.08 -8.88,0 -16.09,-7.2 -16.09,-16.08 0,-8.89 7.21,-16.09 16.09,-16.09zm0 -695.72c4.4,0 8.4,1.49 11.31,3.9l0.03 0c2.9,2.41 4.71,5.73 4.71,9.4l0 132.05c0,3.65 -1.82,6.98 -4.74,9.4 -2.91,2.41 -6.91,3.91 -11.31,3.91 -4.4,0 -8.4,-1.5 -11.31,-3.91 -2.92,-2.42 -4.74,-5.75 -4.74,-9.4l0 -132.05c0,-3.67 1.81,-6.99 4.71,-9.4l0.03 0c2.91,-2.41 6.92,-3.9 11.31,-3.9zm65.31 0c4.4,0 8.41,1.49 11.31,3.9 2.92,2.42 4.74,5.74 4.74,9.4l0 132.05c0,3.65 -1.82,6.98 -4.74,9.4 -2.91,2.41 -6.92,3.91 -11.31,3.91 -4.4,0 -8.41,-1.5 -11.31,-3.9l-0.03 0c-2.91,-2.41 -4.71,-5.74 -4.71,-9.4l0 -132.05c0,-3.65 1.82,-6.99 4.74,-9.4 2.91,-2.41 6.91,-3.9 11.31,-3.9zm-130.61 0c4.4,0 8.41,1.49 11.31,3.9 2.92,2.41 4.74,5.75 4.74,9.4l0 132.05c0,3.65 -1.81,6.98 -4.74,9.4 -2.91,2.4 -6.91,3.9 -11.31,3.9 -4.4,0 -8.41,-1.5 -11.31,-3.91 -2.92,-2.42 -4.74,-5.75 -4.74,-9.4l0 -132.05c0,-3.66 1.82,-6.98 4.74,-9.4 2.91,-2.41 6.92,-3.9 11.31,-3.9z"/>
 </g>
</svg>
